# Blender 4.0.2
# www.blender.org
mtllib minelp_skin_tail.mtl
o tail
v 0.062500 0.789207 0.764106
v 0.062500 0.898534 0.703505
v 0.062500 0.607403 0.436123
v 0.062500 0.716731 0.375522
v -0.062500 0.898534 0.703505
v -0.062500 0.789207 0.764106
v -0.062500 0.716731 0.375522
v -0.062500 0.607403 0.436123
vn -0.0000 0.8746 -0.4848
vn 1.0000 -0.0000 -0.0000
vn -0.0000 -0.8746 0.4848
vn -1.0000 -0.0000 -0.0000
vn -0.0000 0.4848 0.8746
vn -0.0000 -0.4848 -0.8746
vt 0.500000 0.906250
vt 0.531250 0.906250
vt 0.531250 1.000000
vt 0.500000 1.000000
vt 0.500000 0.875000
vt 0.531250 0.875000
s 0
usemtl none
f 4/1/1 7/2/1 5/3/1 2/4/1
f 3/1/2 4/2/2 2/3/2 1/4/2
f 8/1/3 3/2/3 1/3/3 6/4/3
f 7/1/4 8/2/4 6/3/4 5/4/4
f 6/2/5 1/1/5 2/5/5 5/6/5
f 7/6/6 4/5/6 3/1/6 8/2/6
o tail2
v 0.125000 0.683702 0.843655
v 0.125000 0.683702 0.593655
v 0.125000 0.433702 0.843655
v 0.125000 0.433702 0.593655
v -0.125000 0.683702 0.593655
v -0.125000 0.683702 0.843655
v -0.125000 0.433702 0.593655
v -0.125000 0.433702 0.843655
vn -0.0000 -0.0000 -1.0000
vn 1.0000 -0.0000 -0.0000
vn -0.0000 -0.0000 1.0000
vn -1.0000 -0.0000 -0.0000
vn -0.0000 -1.0000 -0.0000
vt 0.562500 0.875000
vt 0.500000 0.875000
vt 0.500000 0.937500
vt 0.562500 0.937500
vt 0.625000 0.875000
vt 0.625000 0.937500
vt 0.562500 1.000000
vt 0.500000 1.000000
s 0
usemtl none
f 12/7/7 15/8/7 13/9/7 10/10/7
f 11/7/8 12/11/8 10/12/8 9/10/8
f 16/8/9 11/7/9 9/10/9 14/9/9
f 15/11/10 16/7/10 14/10/10 13/12/10
f 15/9/11 12/10/11 11/13/11 16/14/11
o tail3
v 0.125000 0.433702 0.843655
v 0.125000 0.433702 0.593655
v 0.125000 0.183702 0.843655
v 0.125000 0.183702 0.593655
v -0.125000 0.433702 0.593655
v -0.125000 0.433702 0.843655
v -0.125000 0.183702 0.593655
v -0.125000 0.183702 0.843655
vn -0.0000 -0.0000 -1.0000
vn 1.0000 -0.0000 -0.0000
vn -0.0000 -0.0000 1.0000
vn -1.0000 -0.0000 -0.0000
vn -0.0000 -1.0000 -0.0000
vt 0.562500 0.937500
vt 0.500000 0.937500
vt 0.500000 1.000000
vt 0.562500 1.000000
vt 0.625000 0.937500
vt 0.625000 1.000000
s 0
usemtl none
f 20/15/12 23/16/12 21/17/12 18/18/12
f 19/15/13 20/19/13 18/20/13 17/18/13
f 24/16/14 19/15/14 17/18/14 22/17/14
f 23/19/15 24/15/15 22/18/15 21/20/15
f 23/16/16 20/15/16 19/18/16 24/17/16
o tail4
v 0.125000 0.183702 0.843655
v 0.125000 0.183702 0.593655
v 0.125000 -0.066298 0.843655
v 0.125000 -0.066298 0.593655
v -0.125000 0.183702 0.593655
v -0.125000 0.183702 0.843655
v -0.125000 -0.066298 0.593655
v -0.125000 -0.066298 0.843655
vn -0.0000 -0.0000 -1.0000
vn 1.0000 -0.0000 -0.0000
vn -0.0000 -0.0000 1.0000
vn -1.0000 -0.0000 -0.0000
vn -0.0000 -1.0000 -0.0000
vt 0.562500 0.875000
vt 0.500000 0.875000
vt 0.500000 0.937500
vt 0.562500 0.937500
vt 0.625000 0.875000
vt 0.625000 0.937500
vt 0.562500 1.000000
vt 0.500000 1.000000
s 0
usemtl none
f 28/21/17 31/22/17 29/23/17 26/24/17
f 27/21/18 28/25/18 26/26/18 25/24/18
f 32/22/19 27/21/19 25/24/19 30/23/19
f 31/25/20 32/21/20 30/24/20 29/26/20
f 31/23/21 28/24/21 27/27/21 32/28/21
o tailBody
v 0.125000 0.933702 0.843655
v 0.125000 0.933702 0.593655
v 0.125000 0.683702 0.843655
v 0.125000 0.683702 0.593655
v -0.125000 0.933702 0.593655
v -0.125000 0.933702 0.843655
v -0.125000 0.683702 0.593655
v -0.125000 0.683702 0.843655
vn -0.0000 -0.0000 -1.0000
vn 1.0000 -0.0000 -0.0000
vn -0.0000 -0.0000 1.0000
vn -1.0000 -0.0000 -0.0000
vn -0.0000 1.0000 -0.0000
vn -0.0000 -1.0000 -0.0000
vt 0.562500 0.937500
vt 0.500000 0.937500
vt 0.500000 1.000000
vt 0.562500 1.000000
vt 0.625000 0.937500
vt 0.625000 1.000000
s 0
usemtl none
f 36/29/22 39/30/22 37/31/22 34/32/22
f 35/29/23 36/33/23 34/34/23 33/32/23
f 40/30/24 35/29/24 33/32/24 38/31/24
f 39/33/25 40/29/25 38/32/25 37/34/25
f 38/31/26 33/32/26 34/29/26 37/30/26
f 39/30/27 36/29/27 35/32/27 40/31/27
