# Blender 4.0.2
# www.blender.org
mtllib minelp_skin_ears.mtl
o ears
v 0.250000 1.417176 -0.320738
v 0.250000 1.417176 -0.445738
v 0.250000 1.292176 -0.320738
v 0.250000 1.292176 -0.445738
v 0.125000 1.417176 -0.445738
v 0.125000 1.417176 -0.320738
v 0.125000 1.292176 -0.445738
v 0.125000 1.292176 -0.320738
vn -0.0000 -0.0000 -1.0000
vn 1.0000 -0.0000 -0.0000
vn -0.0000 -0.0000 1.0000
vn -1.0000 -0.0000 -0.0000
vn -0.0000 1.0000 -0.0000
vn -0.0000 -1.0000 -0.0000
vt 0.218750 0.687500
vt 0.250000 0.687500
vt 0.250000 0.718750
vt 0.218750 0.718750
vt 0.187500 0.687500
vt 0.187500 0.718750
vt 0.281250 0.687500
vt 0.312500 0.687500
vt 0.312500 0.718750
vt 0.281250 0.718750
vt 0.250000 0.750000
vt 0.218750 0.750000
vt 0.281250 0.750000
s 0
usemtl none
f 4/1/1 7/2/1 5/3/1 2/4/1
f 3/5/2 4/1/2 2/4/2 1/6/2
f 8/7/3 3/8/3 1/9/3 6/10/3
f 7/2/4 8/7/4 6/10/4 5/3/4
f 6/11/5 1/12/5 2/4/5 5/3/5
f 7/10/6 4/3/6 3/11/6 8/13/6
o ears.001
v -0.125000 1.417176 -0.320738
v -0.125000 1.417176 -0.445738
v -0.125000 1.292176 -0.320738
v -0.125000 1.292176 -0.445738
v -0.250000 1.417176 -0.445738
v -0.250000 1.417176 -0.320738
v -0.250000 1.292176 -0.445738
v -0.250000 1.292176 -0.320738
vn -0.0000 -0.0000 -1.0000
vn 1.0000 -0.0000 -0.0000
vn -0.0000 -0.0000 1.0000
vn -1.0000 -0.0000 -0.0000
vn -0.0000 1.0000 -0.0000
vn -0.0000 -1.0000 -0.0000
vt 0.250000 0.687500
vt 0.218750 0.687500
vt 0.218750 0.718750
vt 0.250000 0.718750
vt 0.281250 0.687500
vt 0.281250 0.718750
vt 0.312500 0.687500
vt 0.312500 0.718750
vt 0.187500 0.687500
vt 0.187500 0.718750
vt 0.218750 0.750000
vt 0.250000 0.750000
vt 0.281250 0.750000
s 0
usemtl none
f 12/14/7 15/15/7 13/16/7 10/17/7
f 11/18/8 12/14/8 10/17/8 9/19/8
f 16/20/9 11/18/9 9/19/9 14/21/9
f 15/15/10 16/22/10 14/23/10 13/16/10
f 14/24/11 9/25/11 10/17/11 13/16/11
f 15/17/12 12/19/12 11/26/12 16/25/12
