# Blender 4.0.2
# www.blender.org
mtllib minelp_skin_snoutM.mtl
o snoutMale
v 0.125000 0.979676 -0.758238
v 0.125000 0.979676 -0.820738
v 0.125000 0.792176 -0.758238
v 0.125000 0.792176 -0.820738
v -0.125000 0.979676 -0.820738
v -0.125000 0.979676 -0.758238
v -0.125000 0.792176 -0.820738
v -0.125000 0.792176 -0.758238
vn -0.0000 -0.0000 -1.0000
vn 1.0000 -0.0000 -0.0000
vn -1.0000 -0.0000 -0.0000
vn -0.0000 1.0000 -0.0000
vn -0.0000 -1.0000 -0.0000
vt 0.156250 0.750000
vt 0.218750 0.750000
vt 0.218750 0.796875
vt 0.156250 0.796875
vt 0.171875 0.750000
vt 0.171875 0.796875
vt 0.203125 0.750000
vt 0.203125 0.796875
vt 0.156250 0.781250
vt 0.218750 0.781250
vt 0.218750 0.765625
vt 0.156250 0.765625
s 0
usemtl none
f 4/1/1 7/2/1 5/3/1 2/4/1
f 3/1/2 4/5/2 2/6/2 1/4/2
f 7/7/3 8/2/3 6/3/3 5/8/3
f 6/9/4 1/10/4 2/3/4 5/4/4
f 7/1/5 4/2/5 3/11/5 8/12/5
