# Blender 4.0.2
# www.blender.org
mtllib minelp_skin_jacket.mtl
o jacket
v 0.265625 0.765625 -0.265625
v 0.265625 0.765625 -0.546875
v 0.265625 0.234375 -0.265625
v 0.265625 0.234375 -0.546875
v -0.265625 0.765625 -0.546875
v -0.265625 0.765625 -0.265625
v -0.265625 0.234375 -0.546875
v -0.265625 0.234375 -0.265625
vn -0.0000 -0.0000 -1.0000
vn 1.0000 -0.0000 -0.0000
vn -1.0000 -0.0000 -0.0000
vn -0.0000 1.0000 -0.0000
vn -0.0000 -1.0000 -0.0000
vt 0.312500 0.312500
vt 0.437500 0.312500
vt 0.437500 0.437500
vt 0.312500 0.437500
vt 0.250000 0.312500
vt 0.250000 0.437500
vt 0.500000 0.312500
vt 0.500000 0.437500
vt 0.437500 0.500000
vt 0.312500 0.500000
vt 0.562500 0.437500
vt 0.562500 0.500000
s 0
usemtl none
f 4/1/1 7/2/1 5/3/1 2/4/1
f 3/5/2 4/1/2 2/4/2 1/6/2
f 7/2/3 8/7/3 6/8/3 5/3/3
f 6/9/4 1/10/4 2/4/4 5/3/4
f 7/11/5 4/3/5 3/9/5 8/12/5
o jacket.001
v 0.265625 0.765625 0.265625
v 0.265625 0.765625 -0.265625
v -0.265625 0.765625 -0.265625
v -0.265625 0.765625 0.265625
vn -0.0000 1.0000 -0.0000
vt 0.500000 0.312500
vt 0.625000 0.312500
vt 0.625000 0.437500
vt 0.500000 0.437500
s 0
usemtl none
f 12/13/6 9/14/6 10/15/6 11/16/6
o jacket.002
v 0.265625 0.765625 0.546875
v 0.265625 0.765625 0.265625
v 0.265625 0.484375 0.546875
v -0.265625 0.765625 0.265625
v -0.265625 0.765625 0.546875
v -0.265625 0.484375 0.546875
vn -0.0000 -0.0000 1.0000
vn -0.0000 1.0000 -0.0000
vt 0.562500 0.437500
vt 0.687500 0.437500
vt 0.687500 0.500000
vt 0.562500 0.500000
vt 0.625000 0.250000
vt 0.500000 0.250000
vt 0.500000 0.312500
vt 0.625000 0.312500
s 0
usemtl none
f 18/17/7 15/18/7 13/19/7 17/20/7
f 17/21/8 13/22/8 14/23/8 16/24/8
